<svg width="66" height="62" viewBox="0 0 66 62" fill="none" xmlns="http://www.w3.org/2000/svg">
<path fill-rule="evenodd" clip-rule="evenodd" d="M16.0541 31.0001C16.0541 22.2082 23.641 15.0811 33.0001 15.0811C42.359 15.0811 49.9459 22.2082 49.9459 31.0001C49.9459 39.7918 42.359 46.9189 33.0001 46.9189C23.641 46.9189 16.0541 39.7918 16.0541 31.0001ZM33.0001 41.3333C26.9248 41.3333 22 36.707 22 31.0001C22 25.293 26.9248 20.6667 33.0001 20.6667C39.0752 20.6667 44 25.293 44 31.0001C44 36.707 39.0752 41.3333 33.0001 41.3333Z" fill="url(#paint0_linear_496_312)"/>
<path fill-rule="evenodd" clip-rule="evenodd" d="M16.0541 31.0001C16.0541 22.2082 23.641 15.0811 33.0001 15.0811C42.359 15.0811 49.9459 22.2082 49.9459 31.0001C49.9459 39.7918 42.359 46.9189 33.0001 46.9189C23.641 46.9189 16.0541 39.7918 16.0541 31.0001ZM33.0001 41.3333C26.9248 41.3333 22 36.707 22 31.0001C22 25.293 26.9248 20.6667 33.0001 20.6667C39.0752 20.6667 44 25.293 44 31.0001C44 36.707 39.0752 41.3333 33.0001 41.3333Z" fill="url(#paint1_radial_496_312)"/>
<path d="M50.6154 18.1721C52.8025 18.1721 54.5755 16.5067 54.5755 14.4522C54.5755 12.3976 52.8025 10.7321 50.6154 10.7321C48.4285 10.7321 46.6555 12.3976 46.6555 14.4522C46.6555 16.5067 48.4285 18.1721 50.6154 18.1721Z" fill="url(#paint2_linear_496_312)"/>
<path d="M50.6154 18.1721C52.8025 18.1721 54.5755 16.5067 54.5755 14.4522C54.5755 12.3976 52.8025 10.7321 50.6154 10.7321C48.4285 10.7321 46.6555 12.3976 46.6555 14.4522C46.6555 16.5067 48.4285 18.1721 50.6154 18.1721Z" fill="url(#paint3_radial_496_312)"/>
<path fill-rule="evenodd" clip-rule="evenodd" d="M33.0001 0C24.0377 0 22.9139 0.0356859 19.3941 0.186551C15.8817 0.337047 13.4828 0.861137 11.3837 1.62752C9.2137 2.41962 7.37337 3.47962 5.53868 5.203C3.70411 6.9265 2.57573 8.6553 1.73252 10.6938C0.916694 12.6657 0.358792 14.9192 0.198586 18.2187C0.0379882 21.5252 0 22.5809 0 31.0001C0 39.4191 0.0379882 40.4748 0.198586 43.7813C0.358792 47.0808 0.916694 49.3344 1.73252 51.3062C2.57573 53.3447 3.70411 55.0735 5.53868 56.797C7.37337 58.5204 9.2137 59.5804 11.3837 60.3726C13.4828 61.1389 15.8817 61.663 19.3941 61.8134C22.9139 61.9643 24.0377 62 33.0001 62C41.9623 62 43.0861 61.9643 46.6059 61.8134C50.1183 61.663 52.5172 61.1389 54.6163 60.3726C56.7863 59.5804 58.6266 58.5204 60.4613 56.797C62.2959 55.0735 63.4243 53.3447 64.2676 51.3062C65.0833 49.3344 65.6412 47.0808 65.8014 43.7813C65.962 40.4748 66 39.4191 66 31.0001C66 22.5809 65.962 21.5252 65.8014 18.2187C65.6412 14.9192 65.0833 12.6657 64.2676 10.6938C63.4243 8.6553 62.2959 6.9265 60.4613 5.203C58.6266 3.47962 56.7863 2.41962 54.6163 1.62752C52.5172 0.861137 50.1183 0.337047 46.6059 0.186551C43.0861 0.0356859 41.9623 0 33.0001 0ZM33.0001 5.58558C41.8114 5.58558 42.8551 5.6172 46.3348 5.76634C49.5523 5.90416 51.2996 6.40918 52.4625 6.83372C54.0028 7.39608 55.1021 8.06783 56.2568 9.15269C57.4117 10.2374 58.1268 11.2701 58.7254 12.7171C59.1773 13.8094 59.7149 15.4509 59.8616 18.4733C60.0204 21.7422 60.0541 22.7227 60.0541 31.0001C60.0541 39.2773 60.0204 40.2578 59.8616 43.5267C59.7149 46.5491 59.1773 48.1906 58.7254 49.2829C58.1268 50.7299 57.4117 51.7626 56.2568 52.8473C55.1021 53.9322 54.0028 54.6039 52.4625 55.1663C51.2996 55.5908 49.5523 56.0958 46.3348 56.2337C42.8556 56.3828 41.812 56.4144 33.0001 56.4144C24.188 56.4144 23.1445 56.3828 19.6652 56.2337C16.4477 56.0958 14.7004 55.5908 13.5376 55.1663C11.9972 54.6039 10.8979 53.9322 9.74319 52.8473C8.58848 51.7626 7.87325 50.7299 7.27461 49.2829C6.82268 48.1906 6.28509 46.5491 6.13837 43.5267C5.97961 40.2578 5.94594 39.2773 5.94594 31.0001C5.94594 22.7227 5.97961 21.7422 6.13837 18.4733C6.28509 15.4509 6.82268 13.8094 7.27461 12.7171C7.87325 11.2701 8.58835 10.2374 9.74319 9.15269C10.8979 8.06783 11.9972 7.39608 13.5376 6.83372C14.7004 6.40918 16.4477 5.90416 19.6652 5.76634C23.1449 5.6172 24.1887 5.58558 33.0001 5.58558Z" fill="url(#paint4_linear_496_312)"/>
<path fill-rule="evenodd" clip-rule="evenodd" d="M33.0001 0C24.0377 0 22.9139 0.0356859 19.3941 0.186551C15.8817 0.337047 13.4828 0.861137 11.3837 1.62752C9.2137 2.41962 7.37337 3.47962 5.53868 5.203C3.70411 6.9265 2.57573 8.6553 1.73252 10.6938C0.916694 12.6657 0.358792 14.9192 0.198586 18.2187C0.0379882 21.5252 0 22.5809 0 31.0001C0 39.4191 0.0379882 40.4748 0.198586 43.7813C0.358792 47.0808 0.916694 49.3344 1.73252 51.3062C2.57573 53.3447 3.70411 55.0735 5.53868 56.797C7.37337 58.5204 9.2137 59.5804 11.3837 60.3726C13.4828 61.1389 15.8817 61.663 19.3941 61.8134C22.9139 61.9643 24.0377 62 33.0001 62C41.9623 62 43.0861 61.9643 46.6059 61.8134C50.1183 61.663 52.5172 61.1389 54.6163 60.3726C56.7863 59.5804 58.6266 58.5204 60.4613 56.797C62.2959 55.0735 63.4243 53.3447 64.2676 51.3062C65.0833 49.3344 65.6412 47.0808 65.8014 43.7813C65.962 40.4748 66 39.4191 66 31.0001C66 22.5809 65.962 21.5252 65.8014 18.2187C65.6412 14.9192 65.0833 12.6657 64.2676 10.6938C63.4243 8.6553 62.2959 6.9265 60.4613 5.203C58.6266 3.47962 56.7863 2.41962 54.6163 1.62752C52.5172 0.861137 50.1183 0.337047 46.6059 0.186551C43.0861 0.0356859 41.9623 0 33.0001 0ZM33.0001 5.58558C41.8114 5.58558 42.8551 5.6172 46.3348 5.76634C49.5523 5.90416 51.2996 6.40918 52.4625 6.83372C54.0028 7.39608 55.1021 8.06783 56.2568 9.15269C57.4117 10.2374 58.1268 11.2701 58.7254 12.7171C59.1773 13.8094 59.7149 15.4509 59.8616 18.4733C60.0204 21.7422 60.0541 22.7227 60.0541 31.0001C60.0541 39.2773 60.0204 40.2578 59.8616 43.5267C59.7149 46.5491 59.1773 48.1906 58.7254 49.2829C58.1268 50.7299 57.4117 51.7626 56.2568 52.8473C55.1021 53.9322 54.0028 54.6039 52.4625 55.1663C51.2996 55.5908 49.5523 56.0958 46.3348 56.2337C42.8556 56.3828 41.812 56.4144 33.0001 56.4144C24.188 56.4144 23.1445 56.3828 19.6652 56.2337C16.4477 56.0958 14.7004 55.5908 13.5376 55.1663C11.9972 54.6039 10.8979 53.9322 9.74319 52.8473C8.58848 51.7626 7.87325 50.7299 7.27461 49.2829C6.82268 48.1906 6.28509 46.5491 6.13837 43.5267C5.97961 40.2578 5.94594 39.2773 5.94594 31.0001C5.94594 22.7227 5.97961 21.7422 6.13837 18.4733C6.28509 15.4509 6.82268 13.8094 7.27461 12.7171C7.87325 11.2701 8.58835 10.2374 9.74319 9.15269C10.8979 8.06783 11.9972 7.39608 13.5376 6.83372C14.7004 6.40918 16.4477 5.90416 19.6652 5.76634C23.1449 5.6172 24.1887 5.58558 33.0001 5.58558Z" fill="url(#paint5_radial_496_312)"/>
<defs>
<linearGradient id="paint0_linear_496_312" x1="3.85089" y1="3.25952" x2="22.3504" y2="79.4347" gradientUnits="userSpaceOnUse">
<stop stop-color="#4E60D3"/>
<stop offset="0.142763" stop-color="#913BAF"/>
<stop offset="0.761458" stop-color="#D52D88"/>
<stop offset="1" stop-color="#F26D4F"/>
</linearGradient>
<radialGradient id="paint1_radial_496_312" cx="0" cy="0" r="1" gradientUnits="userSpaceOnUse" gradientTransform="translate(19.9811 62) rotate(30.5684) scale(60.6054 42.3839)">
<stop stop-color="#FED276"/>
<stop offset="0.17024" stop-color="#FDBD61" stop-opacity="0.975006"/>
<stop offset="0.454081" stop-color="#F6804D"/>
<stop offset="1" stop-color="#E83D5C" stop-opacity="0.01"/>
</radialGradient>
<linearGradient id="paint2_linear_496_312" x1="3.85089" y1="3.25952" x2="22.3504" y2="79.4347" gradientUnits="userSpaceOnUse">
<stop stop-color="#4E60D3"/>
<stop offset="0.142763" stop-color="#913BAF"/>
<stop offset="0.761458" stop-color="#D52D88"/>
<stop offset="1" stop-color="#F26D4F"/>
</linearGradient>
<radialGradient id="paint3_radial_496_312" cx="0" cy="0" r="1" gradientUnits="userSpaceOnUse" gradientTransform="translate(19.9811 62) rotate(30.5684) scale(60.6054 42.3839)">
<stop stop-color="#FED276"/>
<stop offset="0.17024" stop-color="#FDBD61" stop-opacity="0.975006"/>
<stop offset="0.454081" stop-color="#F6804D"/>
<stop offset="1" stop-color="#E83D5C" stop-opacity="0.01"/>
</radialGradient>
<linearGradient id="paint4_linear_496_312" x1="3.85089" y1="3.25952" x2="22.3504" y2="79.4347" gradientUnits="userSpaceOnUse">
<stop stop-color="#4E60D3"/>
<stop offset="0.142763" stop-color="#913BAF"/>
<stop offset="0.761458" stop-color="#D52D88"/>
<stop offset="1" stop-color="#F26D4F"/>
</linearGradient>
<radialGradient id="paint5_radial_496_312" cx="0" cy="0" r="1" gradientUnits="userSpaceOnUse" gradientTransform="translate(19.9811 62) rotate(30.5684) scale(60.6054 42.3839)">
<stop stop-color="#FED276"/>
<stop offset="0.17024" stop-color="#FDBD61" stop-opacity="0.975006"/>
<stop offset="0.454081" stop-color="#F6804D"/>
<stop offset="1" stop-color="#E83D5C" stop-opacity="0.01"/>
</radialGradient>
</defs>
</svg>
