<svg width="59" height="59" viewBox="0 0 59 59" fill="none" xmlns="http://www.w3.org/2000/svg">
<path d="M20.6309 15.7774C21.1538 15.7987 21.7323 15.8231 22.2819 17.0399C22.6575 17.8718 23.2895 19.4226 23.7932 20.6586C24.1643 21.5693 24.4658 22.309 24.5436 22.464C24.727 22.8294 24.8493 23.2561 24.6047 23.7441C24.5681 23.817 24.5342 23.8859 24.5019 23.9516C24.3181 24.3253 24.183 24.5998 23.8718 24.9626C23.7498 25.1045 23.6237 25.2573 23.4976 25.4101C23.2443 25.7169 22.991 26.0237 22.7711 26.2423C22.4031 26.6066 22.0209 27.0025 22.4489 27.7333C22.877 28.4648 24.3495 30.8567 26.5305 32.7935C28.8735 34.8742 30.909 35.7543 31.9426 36.2012C32.1456 36.289 32.31 36.36 32.4304 36.4202C33.1642 36.7856 33.5922 36.7248 34.0202 36.2364C34.4483 35.7491 35.8535 34.1036 36.3427 33.3728C36.8318 32.6412 37.321 32.7631 37.9936 33.0066C38.6662 33.2502 42.2732 35.0183 43.0069 35.3837C43.15 35.4549 43.2837 35.5192 43.4077 35.5788C43.9198 35.825 44.2656 35.9912 44.4132 36.2364C44.5967 36.5421 44.5967 38.0044 43.9852 39.7105C43.3738 41.4169 40.3783 43.0624 39.0331 43.1843C38.9037 43.196 38.775 43.211 38.6426 43.2266C37.3994 43.3721 35.8303 43.5559 30.2291 41.356C23.337 38.6489 18.7926 31.9405 17.8538 30.5546C17.7768 30.4409 17.724 30.3631 17.6962 30.3261L17.688 30.3153C17.2924 29.7887 14.7004 26.3386 14.7004 22.7686C14.7004 19.4034 16.3612 17.6394 17.1254 16.8278C17.1776 16.7723 17.2256 16.7213 17.2687 16.6745C17.9408 15.9432 18.7358 15.7603 19.2249 15.7603C19.2517 15.7603 19.2785 15.7603 19.3053 15.7603C19.7672 15.7602 20.2268 15.7601 20.6309 15.7774Z" fill="url(#paint0_linear_496_313)"/>
<path fill-rule="evenodd" clip-rule="evenodd" d="M4.20583 43.837C1.5994 39.412 0.236948 34.397 0.236948 29.205C0.236948 13.098 13.4468 0 29.6185 0C37.497 0 44.8424 3.068 50.4106 8.555C55.9197 14.101 59 21.417 59 29.264C59 45.371 45.7902 58.469 29.6185 58.469C24.7018 58.469 19.8444 57.289 15.5793 54.929L0 59L4.20583 43.837ZM8.94478 42.185L9.53715 43.07L7.0492 52.038L16.2902 49.619L17.1787 50.15C20.9106 52.392 25.2349 53.572 29.6185 53.572C43.0653 53.572 54.0241 42.657 54.0241 29.264C54.0241 22.774 51.4769 16.638 46.8564 12.036C42.2952 7.493 36.1345 4.956 29.6185 4.956C16.1717 4.956 5.21285 15.812 5.21285 29.264C5.21285 33.807 6.51606 38.291 8.94478 42.185Z" fill="url(#paint1_linear_496_313)"/>
<defs>
<linearGradient id="paint0_linear_496_313" x1="0" y1="29.5032" x2="59" y2="29.5032" gradientUnits="userSpaceOnUse">
<stop stop-color="#20B038"/>
<stop offset="1" stop-color="#60D66A"/>
</linearGradient>
<linearGradient id="paint1_linear_496_313" x1="0" y1="29.5032" x2="59" y2="29.5032" gradientUnits="userSpaceOnUse">
<stop stop-color="#20B038"/>
<stop offset="1" stop-color="#60D66A"/>
</linearGradient>
</defs>
</svg>
